<?xml version="1.0" encoding="UTF-8" standalone="no"?>
<svg
   xmlns:dc="http://purl.org/dc/elements/1.1/"
   xmlns:cc="http://creativecommons.org/ns#"
   xmlns:rdf="http://www.w3.org/1999/02/22-rdf-syntax-ns#"
   xmlns:svg="http://www.w3.org/2000/svg"
   xmlns="http://www.w3.org/2000/svg"
   xmlns:xlink="http://www.w3.org/1999/xlink"
   xmlns:sodipodi="http://sodipodi.sourceforge.net/DTD/sodipodi-0.dtd"
   xmlns:inkscape="http://www.inkscape.org/namespaces/inkscape"
   width="744.09448"
   height="1052.3622"
   id="svg2"
   sodipodi:version="0.32"
   inkscape:version="0.46"
   sodipodi:docname="tux_simplifie.svg"
   inkscape:output_extension="org.inkscape.output.svg.inkscape"
   version="1.0">
  <metadata
     id="metadata94">
    <rdf:RDF>
      <cc:Work
         rdf:about="">
        <dc:format>image/svg+xml</dc:format>
        <dc:type
           rdf:resource="http://purl.org/dc/dcmitype/StillImage" />
      </cc:Work>
    </rdf:RDF>
  </metadata>
  <sodipodi:namedview
     inkscape:window-height="694"
     inkscape:window-width="1024"
     inkscape:pageshadow="2"
     inkscape:pageopacity="0.0"
     guidetolerance="10.0"
     gridtolerance="10.0"
     objecttolerance="10.0"
     borderopacity="1.0"
     bordercolor="#666666"
     pagecolor="#ffffff"
     id="base"
     showgrid="false"
     inkscape:document-units="mm"
     units="mm"
     inkscape:zoom="0.43934902"
     inkscape:cx="95.945146"
     inkscape:cy="541.09286"
     inkscape:window-x="1"
     inkscape:window-y="2"
     inkscape:current-layer="svg2" />
  <defs
     id="defs4">
    <inkscape:perspective
       sodipodi:type="inkscape:persp3d"
       inkscape:vp_x="0 : 375 : 1"
       inkscape:vp_y="0 : 1000 : 0"
       inkscape:vp_z="625 : 375 : 1"
       inkscape:persp3d-origin="312.5 : 250 : 1"
       id="perspective96" />
    <linearGradient
       id="linearGradient172">
      <stop
         style="stop-color:#3f2600;stop-opacity:0.6;"
         offset="0"
         id="stop173" />
      <stop
         style="stop-color:#3f2600;stop-opacity:0;"
         offset="1"
         id="stop174" />
    </linearGradient>
    <linearGradient
       id="linearGradient167">
      <stop
         style="stop-color:#ffffff;stop-opacity:0.65;"
         offset="0"
         id="stop168" />
      <stop
         style="stop-color:#ffffff;stop-opacity:0;"
         offset="1"
         id="stop169" />
    </linearGradient>
    <linearGradient
       id="linearGradient162">
      <stop
         style="stop-color:#ffa63f;stop-opacity:1;"
         offset="0"
         id="stop163" />
      <stop
         style="stop-color:#ffff00;stop-opacity:1;"
         offset="1"
         id="stop164" />
    </linearGradient>
    <linearGradient
       id="linearGradient153">
      <stop
         style="stop-color:#ffeed7;stop-opacity:1;"
         offset="0"
         id="stop154" />
      <stop
         style="stop-color:#bdbfc2;stop-opacity:1;"
         offset="1"
         id="stop155" />
    </linearGradient>
    <linearGradient
       id="linearGradient138">
      <stop
         style="stop-color:#ffffff;stop-opacity:0.8;"
         offset="0"
         id="stop139" />
      <stop
         style="stop-color:#ffffff;stop-opacity:0;"
         offset="1"
         id="stop140" />
    </linearGradient>
    <linearGradient
       xlink:href="#linearGradient138"
       id="linearGradient141"
       x1="0.47424799"
       y1="0.020191999"
       x2="0.417539"
       y2="0.90125799"
       gradientUnits="objectBoundingBox" />
    <linearGradient
       xlink:href="#linearGradient167"
       id="linearGradient142"
       x1="0.55880702"
       y1="0.031192999"
       x2="0.553922"
       y2="0.94531101"
       gradientUnits="objectBoundingBox" />
    <linearGradient
       xlink:href="#linearGradient167"
       id="linearGradient143"
       x1="0.46557701"
       y1="0.028819799"
       x2="0.41365999"
       y2="0.93366498"
       gradientUnits="objectBoundingBox" />
    <linearGradient
       xlink:href="#linearGradient167"
       id="linearGradient144"
       x1="0.70346397"
       y1="0.059404202"
       x2="0.64553201"
       y2="0.94063401"
       gradientUnits="objectBoundingBox" />
    <linearGradient
       xlink:href="#linearGradient167"
       id="linearGradient145"
       x1="0.46741399"
       y1="-0.036155298"
       x2="0.86741799"
       y2="0.75857902"
       gradientUnits="objectBoundingBox" />
    <linearGradient
       xlink:href="#linearGradient167"
       id="linearGradient146"
       x1="0.57152498"
       y1="0.023441499"
       x2="0.57143003"
       y2="0.71875"
       gradientUnits="objectBoundingBox" />
    <linearGradient
       xlink:href="#linearGradient167"
       id="linearGradient147"
       x1="0.5"
       y1="0.0234362"
       x2="0.5"
       y2="0.8125"
       gradientUnits="objectBoundingBox" />
    <linearGradient
       xlink:href="#linearGradient167"
       id="linearGradient148"
       x1="0.50799799"
       y1="0.37435901"
       x2="0.51599997"
       y2="0.92820501"
       gradientUnits="objectBoundingBox" />
    <linearGradient
       xlink:href="#linearGradient138"
       id="linearGradient149"
       x1="0.5"
       y1="0.131707"
       x2="0.50400001"
       y2="0.94634098"
       gradientUnits="objectBoundingBox" />
    <linearGradient
       xlink:href="#linearGradient167"
       id="linearGradient150"
       x1="-0.30509499"
       y1="0.099496603"
       x2="0.156323"
       y2="0.94191301"
       gradientUnits="objectBoundingBox"
       gradientTransform="matrix(-0.928523,0.283938,0.435332,0.943857,-1.91327e-7,5.49908e-8)" />
    <linearGradient
       xlink:href="#linearGradient167"
       id="linearGradient151"
       x1="0.433979"
       y1="0.022184599"
       x2="0.487055"
       y2="1.02569"
       gradientUnits="objectBoundingBox" />
    <linearGradient
       xlink:href="#linearGradient153"
       id="linearGradient152"
       x1="0.5"
       y1="0.89842999"
       x2="0.5"
       y2="0.40625"
       gradientUnits="objectBoundingBox"
       spreadMethod="reflect" />
    <linearGradient
       xlink:href="#linearGradient153"
       id="linearGradient156"
       x1="0.43568701"
       y1="0.98882002"
       x2="0.453989"
       y2="0.23093501"
       gradientUnits="objectBoundingBox" />
    <linearGradient
       xlink:href="#linearGradient153"
       id="linearGradient157"
       x1="0.49180499"
       y1="1.15284"
       x2="0.49482101"
       y2="0.41252401"
       gradientUnits="objectBoundingBox" />
    <linearGradient
       xlink:href="#linearGradient153"
       id="linearGradient158"
       x1="0.51730198"
       y1="0.85418499"
       x2="0.49843901"
       y2="0.136172"
       gradientUnits="objectBoundingBox" />
    <linearGradient
       xlink:href="#linearGradient153"
       id="linearGradient159"
       x1="0.46201"
       y1="0.87917101"
       x2="0.49215299"
       y2="0.096282303"
       gradientUnits="objectBoundingBox" />
    <linearGradient
       xlink:href="#linearGradient162"
       id="linearGradient161"
       x1="0.50086302"
       y1="0.34872901"
       x2="0.41209599"
       y2="0.98558098"
       gradientUnits="objectBoundingBox" />
    <linearGradient
       xlink:href="#linearGradient162"
       id="linearGradient165"
       x1="0.60399801"
       y1="0.51020199"
       x2="0.46399999"
       y2="0.98367399"
       gradientUnits="objectBoundingBox" />
    <linearGradient
       xlink:href="#linearGradient162"
       id="linearGradient166"
       x1="0.50000501"
       y1="0.191616"
       x2="0.50800002"
       y2="0.97005898"
       gradientUnits="objectBoundingBox" />
    <radialGradient
       xlink:href="#linearGradient172"
       id="radialGradient171"
       cx="0.5"
       cy="0.5"
       fx="0.5"
       fy="0.5"
       r="0.5"
       gradientUnits="objectBoundingBox" />
    <radialGradient
       xlink:href="#linearGradient172"
       id="radialGradient176" />
    <linearGradient
       xlink:href="#linearGradient153"
       id="linearGradient178"
       x1="0.94027299"
       y1="1.2934099"
       x2="0.19452"
       y2="-0.675295"
       gradientUnits="objectBoundingBox" />
    <radialGradient
       xlink:href="#linearGradient172"
       id="radialGradient1399"
       gradientTransform="scale(1.045233,0.956725)"
       cx="446.77762"
       cy="1219.4125"
       fx="446.77762"
       fy="1219.4125"
       r="195.07191"
       gradientUnits="userSpaceOnUse" />
    <linearGradient
       xlink:href="#linearGradient153"
       id="linearGradient1401"
       gradientUnits="userSpaceOnUse"
       x1="400.57785"
       y1="369.53015"
       x2="400.84448"
       y2="304.07886"
       gradientTransform="scale(0.575262,1.738339)" />
    <linearGradient
       xlink:href="#linearGradient138"
       id="linearGradient1403"
       gradientUnits="userSpaceOnUse"
       x1="303.01761"
       y1="237.93179"
       x2="297.0856"
       y2="330.09561"
       gradientTransform="scale(1.116071,0.896001)" />
    <linearGradient
       xlink:href="#linearGradient153"
       id="linearGradient1405"
       gradientUnits="userSpaceOnUse"
       gradientTransform="scale(0.816497,1.224744)"
       x1="378.93771"
       y1="278.60202"
       x2="380.27319"
       y2="243.91606" />
    <linearGradient
       xlink:href="#linearGradient153"
       id="linearGradient1407"
       gradientUnits="userSpaceOnUse"
       x1="381.38742"
       y1="277.495"
       x2="380.5517"
       y2="245.68338"
       gradientTransform="scale(0.816497,1.224744)" />
    <linearGradient
       xlink:href="#linearGradient167"
       id="linearGradient1409"
       gradientUnits="userSpaceOnUse"
       gradientTransform="scale(0.816497,1.224744)"
       x1="379.09573"
       y1="240.92712"
       x2="376.79556"
       y2="281.01636" />
    <linearGradient
       xlink:href="#linearGradient167"
       id="linearGradient1411"
       gradientUnits="userSpaceOnUse"
       x1="389.63535"
       y1="242.28218"
       x2="387.06866"
       y2="281.32513"
       gradientTransform="scale(0.816497,1.224744)" />
    <linearGradient
       xlink:href="#linearGradient153"
       id="linearGradient1413"
       gradientUnits="userSpaceOnUse"
       spreadMethod="reflect"
       x1="437.57941"
       y1="528.87177"
       x2="437.57941"
       y2="394.10361"
       gradientTransform="scale(0.812855,1.230232)" />
    <linearGradient
       xlink:href="#linearGradient153"
       id="linearGradient1415"
       gradientUnits="userSpaceOnUse"
       x1="375.17325"
       y1="419.78485"
       x2="377.48541"
       y2="324.03815"
       gradientTransform="scale(0.649784,1.538974)" />
    <linearGradient
       xlink:href="#linearGradient138"
       id="linearGradient1417"
       gradientUnits="userSpaceOnUse"
       x1="320.75104"
       y1="498.17776"
       x2="321.32224"
       y2="614.50439"
       gradientTransform="scale(1.074798,0.930408)" />
    <linearGradient
       xlink:href="#linearGradient167"
       id="linearGradient1419"
       gradientUnits="userSpaceOnUse"
       x1="322.48257"
       y1="435.26761"
       x2="323.2514"
       y2="488.48251"
       gradientTransform="scale(1.077001,0.928504)" />
    <linearGradient
       xlink:href="#linearGradient167"
       id="linearGradient1421"
       gradientUnits="userSpaceOnUse"
       x1="411.2215"
       y1="242.94365"
       x2="411.2215"
       y2="331.44858"
       gradientTransform="scale(0.571707,1.749147)" />
    <linearGradient
       xlink:href="#linearGradient167"
       id="linearGradient1423"
       gradientUnits="userSpaceOnUse"
       x1="867.34546"
       y1="234.73897"
       x2="867.33453"
       y2="314.83911"
       gradientTransform="scale(0.572667,1.746214)" />
    <linearGradient
       xlink:href="#linearGradient162"
       id="linearGradient1425"
       gradientUnits="userSpaceOnUse"
       x1="236.25362"
       y1="657.11133"
       x2="212.5099"
       y2="737.41229"
       gradientTransform="scale(1.011514,0.988617)" />
    <linearGradient
       xlink:href="#linearGradient153"
       id="linearGradient1427"
       gradientUnits="userSpaceOnUse"
       x1="381.56607"
       y1="655.73102"
       x2="279.64313"
       y2="386.66583"
       gradientTransform="scale(1.065499,0.938527)" />
    <linearGradient
       xlink:href="#linearGradient162"
       id="linearGradient1429"
       gradientUnits="userSpaceOnUse"
       x1="218.11714"
       y1="630.30475"
       x2="203.12654"
       y2="737.8537"
       gradientTransform="scale(1.009851,0.990245)" />
    <linearGradient
       xlink:href="#linearGradient167"
       id="linearGradient1431"
       gradientUnits="userSpaceOnUse"
       gradientTransform="scale(1.007724,0.992335)"
       x1="117.88966"
       y1="587.23602"
       x2="182.24524"
       y2="704.73077" />
    <linearGradient
       xlink:href="#linearGradient167"
       id="linearGradient1433"
       gradientUnits="userSpaceOnUse"
       x1="223.10072"
       y1="570.41809"
       x2="230.53499"
       y2="710.97723"
       gradientTransform="scale(0.999504,1.000496)" />
    <linearGradient
       xlink:href="#linearGradient167"
       id="linearGradient1435"
       gradientUnits="userSpaceOnUse"
       x1="316.93988"
       y1="474.01779"
       x2="371.60889"
       y2="582.63507"
       gradientTransform="scale(1.065499,0.938527)" />
    <linearGradient
       xlink:href="#linearGradient162"
       id="linearGradient1437"
       gradientUnits="userSpaceOnUse"
       x1="284.68652"
       y1="410.46326"
       x2="285.45923"
       y2="485.69934"
       gradientTransform="scale(1.218684,0.820557)" />
    <linearGradient
       xlink:href="#linearGradient167"
       id="linearGradient1439"
       gradientUnits="userSpaceOnUse"
       x1="288.82358"
       y1="398.85422"
       x2="288.37628"
       y2="482.55939"
       gradientTransform="scale(1.221941,0.81837)" />
  </defs>
  <g
     id="g1369"
     transform="matrix(1.2892536,0,0,1.2892536,-429.95017,-28.10209)">
    <path
       transform="matrix(1.25,0,0,1.25,185.454,-167.505)"
       id="path106"
       d="M 223.627,632.24 C 201.239,600.017 196.873,495.256 249.114,430.81 C 275,399.892 281.604,378.345 283.645,349.417 C 285.034,316.438 260.32,217.975 353.528,210.473 C 447.934,202.941 442.864,296.133 442.321,345.448 C 441.87,387.088 472.895,410.689 494.117,443.143 C 533.396,502.773 530.074,605.443 486.718,661.015 C 431.801,730.583 384.765,700.413 353.528,702.945 C 295.035,706.147 293.101,737.336 223.627,632.24 z"
       style="fill:#000000;stroke:none;stroke-width:1.25" />
    <path
       id="path113"
       d="M 246.571,470.864 C 234.332,483.36 202.175,539.956 251.44,576.224 C 268.809,588.857 235.063,635.719 219.435,612.532 C 191.865,570.914 210.604,505.591 227.75,482.344 C 239.402,465.857 256.98,459.668 246.571,470.864 z"
       style="fill:#ffffff;fill-opacity:1;stroke:none;stroke-width:0.99464899"
       transform="matrix(-1.67739,-2.24516e-2,-2.11236e-2,1.4709,1173.58,-293.017)" />
    <path
       transform="matrix(1.30445,-7.55326e-2,7.71251e-2,1.34257,144.757,-177.617)"
       d="M 328.86324,320.64151 C 328.86324,335.62566 320.7652,347.77271 310.77576,347.77271 C 300.78632,347.77271 292.68828,335.62566 292.68828,320.64151 C 292.68828,305.65736 300.78632,293.51031 310.77576,293.51031 C 320.7652,293.51031 328.86324,305.65736 328.86324,320.64151 z"
       id="path115"
       style="fill:#ffffff;fill-opacity:1;stroke:none;stroke-width:1.17873001" />
    <path
       transform="matrix(-1.81082,4.95107e-2,3.17324e-2,1.55333,1207.46,-284.777)"
       d="M 328.86324,320.64151 C 328.86324,335.62566 320.7652,347.77271 310.77576,347.77271 C 300.78632,347.77271 292.68828,335.62566 292.68828,320.64151 C 292.68828,305.65736 300.78632,293.51031 310.77576,293.51031 C 320.7652,293.51031 328.86324,305.65736 328.86324,320.64151 z"
       id="path116"
       style="fill:#ffffff;fill-opacity:1;stroke:none;stroke-width:0.93138498" />
    <path
       transform="matrix(-0.823196,-1.76123e-3,-1.82321e-2,0.852662,913.674,-37.9902)"
       d="M 328.86324,320.64151 C 328.86324,335.62566 320.7652,347.77271 310.77576,347.77271 C 300.78632,347.77271 292.68828,335.62566 292.68828,320.64151 C 292.68828,305.65736 300.78632,293.51031 310.77576,293.51031 C 320.7652,293.51031 328.86324,305.65736 328.86324,320.64151 z"
       id="path117"
       style="fill:#000000;stroke:none;stroke-width:1.86495996" />
    <path
       transform="matrix(0.59438,-7.22959e-2,6.88176e-2,0.705838,367.448,32.4186)"
       d="M 328.86324,320.64151 C 328.86324,335.62566 320.7652,347.77271 310.77576,347.77271 C 300.78632,347.77271 292.68828,335.62566 292.68828,320.64151 C 292.68828,305.65736 300.78632,293.51031 310.77576,293.51031 C 320.7652,293.51031 328.86324,305.65736 328.86324,320.64151 z"
       id="path118"
       style="fill:#000000;stroke:none;stroke-width:2.39814997" />
    <path
       id="path128"
       d="M 258.702,495.425 C 271.538,466.322 298.816,415.199 299.397,375.667 C 299.397,344.225 393.576,336.716 401.134,368.109 C 408.692,399.502 427.875,446.592 440.084,469.265 C 452.292,491.937 487.893,563.96 449.968,626.811 C 415.811,682.455 312.243,726.477 256.958,619.254 C 238.355,582.047 241.673,535.939 258.702,495.425 z"
       style="fill:#ffffff;fill-opacity:1;stroke:none;stroke-width:1.25"
       transform="matrix(1.25,0,0,1.25,185.454,-168.23)" />
    <path
       id="path111"
       d="M 256.513,459.837 C 236.598,477.554 200.337,539.928 253.225,580.443 C 270.595,593.075 237.832,632.906 219.435,612.532 C 155.472,541.712 221.104,460.278 243.697,432.282 C 263.889,407.935 281.775,438.034 256.513,459.837 z"
       style="fill:#000000;stroke:#000000;stroke-width:0.97729802"
       transform="matrix(-1.67755,0,0,1.52374,1174.62,-318.082)" />
    <path
       transform="matrix(1.38936,-0.111074,0.102211,1.30214,108.413,-165.938)"
       id="path112"
       d="M 242.905,473.815 C 231.642,492.782 207.405,543.124 255.042,575.862 C 306.353,610.682 301.515,672.924 239.435,637.817 C 182.658,606.028 216.59,500.039 234.925,475.551 C 247.032,458.337 264.822,437.52 242.905,473.815 z"
       style="fill:#ffffff;fill-opacity:1;stroke:none;stroke-width:1.15804005" />
    <path
       transform="matrix(1.25,0,0,1.25,185.454,-167.505)"
       id="path109"
       d="M 256.513,449.72 C 239.048,478.228 197.136,545.533 253.225,580.443 C 328.794,626.798 307.398,673.154 238.426,631.417 C 141.317,573.153 226.601,455.801 265.557,411.079 C 310.001,360.879 274.111,420.166 256.513,449.72 z"
       style="fill:#000000;stroke:#000000;stroke-width:1.25" />
    <path
       transform="matrix(1.25,0,0,1.25,185.454,-167.505)"
       id="path132"
       d="M 220.915,716.921 C 180.473,695.505 121.663,721.045 143.013,662.855 C 147.289,649.617 136.638,629.847 143.594,616.929 C 151.733,601.231 169.174,604.72 179.639,594.255 C 189.957,583.364 196.498,564.606 215.683,567.513 C 234.867,570.42 247.628,593.974 261.027,622.742 C 270.91,643.38 305.968,672.406 303.677,695.5 C 300.981,731 260.65,737.69 220.915,716.921 z"
       style="fill:#ffec00;fill-opacity:1;stroke:#e68c3f;stroke-width:6.25" />
    <path
       id="path177"
       d="M 415.072,495.764 C 412.065,520.67 379.259,572.391 345.554,577.298 C 311.294,582.634 279.122,543.238 271.407,506.184 C 261.518,464.978 293.994,448.584 343.345,449.557 C 396.646,451.211 417.466,463.448 415.072,495.764 z"
       style="font-size:12px;fill:#ffffff;fill-opacity:1;stroke:none;stroke-width:2.85509992;stroke-dasharray:none"
       transform="matrix(0.598206,0.268584,-0.239623,0.617213,700.568,140.464)" />
    <path
       transform="matrix(-1.1685,0.423145,0.475283,1.16478,728.343,-213.821)"
       id="path133"
       d="M 220.274,718.402 C 178.947,694.812 120.38,724.007 143.013,662.855 C 147.749,649.787 136.417,629.303 143.373,616.385 C 151.512,600.687 169.174,604.72 179.639,594.255 C 189.957,583.364 198.466,566.387 217.651,569.294 C 236.835,572.201 247.628,593.974 261.027,622.742 C 270.91,643.38 304.442,671.713 302.151,694.807 C 299.455,730.307 259.427,740.278 220.274,718.402 z"
       style="fill:#ffec00;fill-opacity:1;stroke:#e68c3f;stroke-width:6.25067997" />
    <path
       id="path136"
       d="M 415.072,495.764 C 412.065,520.67 379.259,572.391 345.554,577.298 C 311.294,582.634 279.122,543.238 271.407,506.184 C 261.518,464.978 293.994,448.584 343.345,449.557 C 396.646,451.211 417.466,463.448 415.072,495.764 z"
       style="font-size:12px;fill:#000000;stroke:none;stroke-width:2.85509992"
       transform="matrix(0.515584,0.215259,-0.206526,0.49467,713.3,222.559)" />
    <path
       transform="matrix(1.25,0,0,1.25,185.454,-167.505)"
       id="path119"
       d="M 309.954,338.729 C 317.101,331.959 334.765,311.663 367.915,332.974 C 374.077,336.984 379.077,337.351 390.936,342.429 C 414.662,352.178 403.318,375.688 378.192,383.537 C 367.434,387.026 357.656,400.093 338.063,398.976 C 321.329,397.999 316.944,387.102 306.665,381.07 C 288.396,370.759 285.7,356.816 295.565,349.417 C 305.431,342.018 309.29,339.358 309.954,338.729 z"
       style="fill:#ffec00;fill-opacity:1;stroke:#e68c3f;stroke-width:3.75" />
    <path
       transform="matrix(1.25,0,0,1.25,185.454,-167.505)"
       id="path120"
       d="M 391.251,357.645 C 381.368,358.226 359.858,379.736 337.185,379.736 C 314.512,379.736 301.141,358.807 297.653,358.807"
       style="fill:none;stroke:#e68c3f;stroke-width:2.5" />
  </g>
</svg>
