<?xml version="1.0" encoding="utf-8" standalone="no"?>
<!DOCTYPE svg PUBLIC "-//W3C//DTD SVG 1.0//EN" "http://www.w3.org/TR/2001/REC-SVG-20010904/DTD/svg10.dtd">
<!-- Generator: Adobe Illustrator 16.0.3, SVG Export Plug-In . SVG Version: 6.00 Build 0)  -->
<svg version="1.2" baseProfile="tiny" id="t_button" xmlns="http://www.w3.org/2000/svg" xmlns:xlink="http://www.w3.org/1999/xlink"
	 x="0px" y="0px" width="128px" height="128px" viewBox="0 0 128 128"  enable-background="new 0 0 128 128" xml:space="preserve">
    <script type="text/ecmascript">
    <![CDATA[
        document.enable = function() {
            document.getElementById('button_generic').setAttribute('opacity', 1); 
        }

        document.disable = function() {
            document.getElementById('button_generic').setAttribute('opacity', 0.35); 
        }
    ]]>
    </script>
  
    <g id="button_generic">
        <defs>
            <!-- right U template-->
            <g id="out" >
				<path d="M30.876,114.062c-1.977-5.063-3.833-10.165-5.697-15.265l-2.741-7.667l-2.688-7.684
				c-1.805-5.119-3.509-10.27-5.265-15.404L9.375,52.589l-0.409-1.235l1.059-0.77l6.554-4.76l6.604-4.689
				c1.097-0.787,2.22-1.539,3.328-2.31l3.335-2.299l6.671-4.599l6.676-4.592c2.221-1.536,4.46-3.049,6.667-4.604
				c2.204-1.561,4.422-3.1,6.613-4.677l6.566-4.742l0.355-0.257l0.354,0.257l6.559,4.766l6.597,4.716l13.292,9.295l13.328,9.247
				c4.435,3.094,8.841,6.226,13.242,9.365l1.043,0.744l-0.395,1.263l-9.682,31.022l-2.488,7.733l-2.501,7.729l-5.124,15.42
				l-0.467,1.406l-1.433-0.023l-16.164-0.254c-5.388-0.124-10.776-0.199-16.164-0.378l-16.164-0.478
				c-5.388-0.231-10.776-0.396-16.164-0.687l-0.139-0.008L30.876,114.062z M31.218,113.794c5.337-0.287,10.675-0.451,16.013-0.681
				l16.164-0.478c5.388-0.179,10.776-0.254,16.164-0.378l16.164-0.254l-1.899,1.382l4.866-15.503l2.494-7.731l2.507-7.728
				l10.299-30.823l0.648,2.006c-4.316-3.254-8.628-6.515-12.912-9.814l-12.826-9.931l-12.861-9.883l-6.48-5.014L63.04,14h0.709
				l-6.511,4.959c-2.168,1.608-4.308,3.327-6.463,4.953c-2.152,1.631-4.272,3.34-6.411,4.99l-6.401,4.986l-6.406,4.97l-3.203,2.485
				c-1.071,0.822-2.127,1.666-3.21,2.472l-6.472,4.873l-6.523,4.801l0.65-2.005l4.878,15.529c1.575,5.193,3.2,10.369,4.726,15.578
				l2.307,7.807l2.254,7.824C28.417,103.401,29.875,108.579,31.218,113.794z"/>  
			</g>
			<g id="zebra">
				<line fill="none" stroke-linecap="round" stroke-width="6" stroke-miterlimit="10" x1="64" y1="64" x2="34" y2="79"/>
				<line fill="none" stroke-linecap="round" stroke-width="6" stroke-miterlimit="10" x1="64" y1="74" x2="36" y2="88"/>
				<line fill="none" stroke-linecap="round" stroke-width="6" stroke-miterlimit="10" x1="64" y1="84" x2="38" y2="97"/>
				<line fill="none" stroke-linecap="round" stroke-width="6" stroke-miterlimit="10" x1="64" y1="64" x2="94" y2="79"/>
				<line fill="none" stroke-linecap="round" stroke-width="6" stroke-miterlimit="10" x1="64" y1="74" x2="92" y2="88"/>
				<line fill="none" stroke-linecap="round" stroke-width="6" stroke-miterlimit="10" x1="64" y1="84" x2="90" y2="97"/>
				<path stroke-width="1.5" d="M52.396,50.954c-0.531,0.359-1.633,0.901-3.093,1.468c-3.382,1.314-6.491,1.509-7.799-0.783
					c-1.249-2.189,0.755-5.424,5.197-7.108c1.786-0.677,3-0.811,3.536-0.822c-0.083,0.379-0.123,0.569-0.199,0.948
					c-0.752,0.033-1.794,0.224-2.965,0.666c-3.303,1.247-4.843,3.476-3.873,5.354c0.905,1.75,3.128,1.941,6.113,0.809
					c0.964-0.366,1.915-0.822,2.508-1.218C52.053,50.54,52.168,50.678,52.396,50.954z"/>
				<path stroke-width="1.5" d="M54.427,42.408c0.276,1.318,0.416,1.979,0.692,3.297c2.677-0.561,4.033-0.745,6.749-0.922
					c-0.088-1.344-0.132-2.018-0.22-3.362c0.785-0.051,1.178-0.069,1.964-0.09c0.086,3.218,0.129,4.828,0.216,8.047
					c-0.663,0.018-0.994,0.032-1.656,0.075c-0.098-1.506-0.147-2.259-0.245-3.766c-2.666,0.173-3.996,0.355-6.622,0.905
					c0.31,1.478,0.465,2.216,0.775,3.694c-0.645,0.135-0.967,0.208-1.607,0.367c-0.78-3.124-1.169-4.686-1.949-7.81
					C53.282,42.655,53.663,42.568,54.427,42.408z"/>
				<path stroke-width="1.5" d="M68.929,41.462c-0.247,3.21-0.369,4.815-0.614,8.026c-0.654-0.05-0.98-0.068-1.636-0.094
					c0.124-3.217,0.186-4.827,0.312-8.044C67.767,41.381,68.153,41.403,68.929,41.462z"/>
				<path stroke-width="1.5" d="M78.713,47.621c-2.074-0.629-3.127-0.883-5.246-1.269c-0.208,1.142-0.311,1.712-0.519,2.854
					c2.216,0.403,3.315,0.676,5.479,1.363c-0.105,0.333-0.157,0.499-0.263,0.831c-2.752-0.874-4.164-1.195-6.997-1.601
					c0.456-3.188,0.684-4.78,1.143-7.967c3.227,0.462,4.829,0.821,7.968,1.795c-0.104,0.333-0.156,0.501-0.26,0.834
					c-2.347-0.729-3.538-1.021-5.939-1.459c-0.183,1.001-0.274,1.501-0.457,2.502c2.157,0.393,3.229,0.651,5.341,1.292
					C78.862,47.127,78.813,47.292,78.713,47.621z"/>
				<path stroke-width="1.5" d="M83.018,44.565c3.083,1.151,4.597,1.855,7.509,3.516c-0.173,0.303-0.263,0.454-0.436,0.757
					c-2.176-1.241-3.293-1.789-5.57-2.74c-0.412,0.987-0.618,1.48-1.03,2.468c1.993,0.833,2.975,1.308,4.887,2.375
					c-0.168,0.3-0.252,0.45-0.42,0.75c-1.878-1.048-2.839-1.515-4.797-2.333c-0.562,1.345-0.846,2.017-1.407,3.362
					c-0.616-0.258-0.926-0.38-1.55-0.613C81.329,49.09,81.891,47.581,83.018,44.565z"/>
			</g>
		</defs>
		
		<!-- shadow dark/white outbound -->
            <use xlink:href="#out" fill="#000000" opacity="0.7" transform="translate(2,2)" />
            
            <!-- white right U -->
            <use xlink:href="#out" fill="#CCCCCC" />
                    
                    <!-- shadow dark/white outbound -->
            <use xlink:href="#zebra" stroke="#000000" opacity="0.7" transform="translate(2,2)" />
            
            <!-- white right U -->
            <use xlink:href="#zebra" stroke="#CCCCCC" />
	</g>
</svg>
