<?xml version="1.0" encoding="utf-8" standalone="no"?>
<!DOCTYPE svg PUBLIC "-//W3C//DTD SVG 1.0//EN" "http://www.w3.org/TR/2001/REC-SVG-20010904/DTD/svg10.dtd">
<!-- Generator: Adobe Illustrator 16.0.3, SVG Export Plug-In . SVG Version: 6.00 Build 0)  -->
<svg version="1.2" baseProfile="tiny" id="t_button" xmlns="http://www.w3.org/2000/svg" xmlns:xlink="http://www.w3.org/1999/xlink"
	 x="0px" y="0px" width="128px" height="128px" viewBox="0 0 128 128"  enable-background="new 0 0 128 128" xml:space="preserve">
    <script type="text/ecmascript">
    <![CDATA[
        document.enable = function() {
            document.getElementById('button_generic').setAttribute('opacity', 1); 
        }

        document.disable = function() {
            document.getElementById('button_generic').setAttribute('opacity', 0.35); 
        }
    ]]>
    </script>
  
    <g id="button_generic">
        <defs>
            <!-- right U template-->
            <g id="out" >
				<path d="M30.876,114.062c-1.977-5.063-3.833-10.165-5.697-15.265l-2.741-7.667l-2.688-7.684
				c-1.805-5.119-3.509-10.27-5.265-15.404L9.375,52.589l-0.409-1.235l1.059-0.77l6.554-4.76l6.604-4.689
				c1.097-0.787,2.22-1.539,3.328-2.31l3.335-2.299l6.671-4.599l6.676-4.592c2.221-1.536,4.46-3.049,6.667-4.604
				c2.204-1.561,4.422-3.1,6.613-4.677l6.566-4.742l0.355-0.257l0.354,0.257l6.559,4.766l6.597,4.716l13.292,9.295l13.328,9.247
				c4.435,3.094,8.841,6.226,13.242,9.365l1.043,0.744l-0.395,1.263l-9.682,31.022l-2.488,7.733l-2.501,7.729l-5.124,15.42
				l-0.467,1.406l-1.433-0.023l-16.164-0.254c-5.388-0.124-10.776-0.199-16.164-0.378l-16.164-0.478
				c-5.388-0.231-10.776-0.396-16.164-0.687l-0.139-0.008L30.876,114.062z M31.218,113.794c5.337-0.287,10.675-0.451,16.013-0.681
				l16.164-0.478c5.388-0.179,10.776-0.254,16.164-0.378l16.164-0.254l-1.899,1.382l4.866-15.503l2.494-7.731l2.507-7.728
				l10.299-30.823l0.648,2.006c-4.316-3.254-8.628-6.515-12.912-9.814l-12.826-9.931l-12.861-9.883l-6.48-5.014L63.04,14h0.709
				l-6.511,4.959c-2.168,1.608-4.308,3.327-6.463,4.953c-2.152,1.631-4.272,3.34-6.411,4.99l-6.401,4.986l-6.406,4.97l-3.203,2.485
				c-1.071,0.822-2.127,1.666-3.21,2.472l-6.472,4.873l-6.523,4.801l0.65-2.005l4.878,15.529c1.575,5.193,3.2,10.369,4.726,15.578
				l2.307,7.807l2.254,7.824C28.417,103.401,29.875,108.579,31.218,113.794z"/>  
			</g>
			<g id="zebra">
				<line fill="none" stroke-linecap="round" stroke-width="6" stroke-miterlimit="10" x1="64" y1="64" x2="34" y2="79"/>
				<line fill="none" stroke-linecap="round" stroke-width="6" stroke-miterlimit="10" x1="64" y1="74" x2="36" y2="88"/>
				<line fill="none" stroke-linecap="round" stroke-width="6" stroke-miterlimit="10" x1="64" y1="84" x2="38" y2="97"/>
				<line fill="none" stroke-linecap="round" stroke-width="6" stroke-miterlimit="10" x1="64" y1="64" x2="94" y2="79"/>
				<line fill="none" stroke-linecap="round" stroke-width="6" stroke-miterlimit="10" x1="64" y1="74" x2="92" y2="88"/>
				<line fill="none" stroke-linecap="round" stroke-width="6" stroke-miterlimit="10" x1="64" y1="84" x2="90" y2="97"/>
				<path stroke-width="1.5" d="M48.711,51.74c-0.407,0.331-1.215,0.938-2.271,1.405c-1.184,0.524-2.274,0.727-3.39,0.465
					c-0.985-0.23-1.955-0.926-2.573-2.019c-1.185-2.091-0.242-4.746,2.886-6.109c1.079-0.47,2.011-0.611,2.475-0.607
					c0.003,0.363,0.006,0.545,0.014,0.908c-0.562,0.011-1.241,0.111-2.166,0.515c-2.23,0.974-3.057,2.84-2.101,4.628
					c0.967,1.809,2.716,2.215,4.576,1.396c0.675-0.297,1.106-0.573,1.302-0.781c-0.358-0.895-0.539-1.342-0.897-2.237
					c-0.695,0.278-1.04,0.425-1.726,0.732c-0.137-0.307-0.206-0.459-0.343-0.766c1.132-0.507,1.704-0.741,2.858-1.171
					C47.896,49.556,48.169,50.283,48.711,51.74z"/>
				<path stroke-width="1.5" d="M49.138,43.451c0.552,1.833,0.829,2.75,1.38,4.583c0.522,1.734,1.562,2.216,2.674,1.936
					c1.237-0.312,1.879-1.238,1.524-2.99c-0.38-1.876-0.569-2.815-0.949-4.691c0.512-0.104,0.769-0.153,1.282-0.243
					c0.327,1.857,0.49,2.787,0.817,4.644c0.431,2.445-0.732,3.668-2.502,4.115c-1.673,0.423-3.208-0.056-3.992-2.437
					c-0.595-1.809-0.892-2.712-1.487-4.521C48.385,43.683,48.635,43.603,49.138,43.451z"/>
				<path stroke-width="1.5" d="M58.32,49.722c-0.422-3.207-0.633-4.809-1.056-8.015c0.558-0.073,0.836-0.106,1.396-0.164
					c1.44,1.495,2.111,2.269,3.354,3.854c0.719,0.918,1.248,1.762,1.665,2.586c0.01-0.005,0.014-0.007,0.023-0.012
					c-0.11-1.079-0.145-2.061-0.157-3.32c-0.013-1.353-0.019-2.03-0.031-3.383c0.484-0.004,0.726-0.004,1.21,0.002
					c-0.046,3.233-0.067,4.85-0.112,8.083c-0.438-0.006-0.659-0.006-1.098-0.001c-1.084-1.629-1.676-2.428-2.959-3.979
					c-0.704-0.851-1.422-1.71-2.005-2.528c-0.017,0.007-0.026,0.009-0.042,0.016c0.184,1.005,0.315,1.969,0.459,3.304
					c0.148,1.374,0.222,2.06,0.371,3.434C58.929,49.644,58.726,49.668,58.32,49.722z"/>
				<path stroke-width="1.5" d="M66.505,49.421c0.186-3.229,0.277-4.841,0.465-8.069c0.561,0.032,0.842,0.052,1.401,0.099
					c1.133,1.738,1.647,2.624,2.573,4.415c0.536,1.037,0.896,1.964,1.153,2.853c0.011-0.003,0.018-0.005,0.028-0.008
					c0.094-1.08,0.24-2.052,0.465-3.291c0.241-1.331,0.362-1.997,0.604-3.328c0.479,0.087,0.718,0.133,1.194,0.231
					c-0.653,3.167-0.977,4.75-1.628,7.917c-0.432-0.089-0.65-0.131-1.083-0.208c-0.764-1.804-1.195-2.699-2.166-4.464
					c-0.533-0.968-1.078-1.946-1.497-2.858c-0.018,0.003-0.025,0.005-0.043,0.008c-0.009,1.021-0.062,1.992-0.171,3.331
					c-0.112,1.377-0.166,2.065-0.277,3.443C67.117,49.458,66.913,49.444,66.505,49.421z"/>
				<path stroke-width="1.5" d="M80.109,48.388c-1.354-0.491-2.037-0.709-3.415-1.094c-0.313,1.123-0.471,1.684-0.784,2.807
					c1.441,0.402,2.155,0.634,3.566,1.16c-0.122,0.328-0.182,0.492-0.304,0.82c-1.796-0.669-2.71-0.951-4.553-1.415
					c0.789-3.136,1.183-4.704,1.974-7.84c2.1,0.529,3.142,0.848,5.189,1.601c-0.121,0.329-0.182,0.494-0.303,0.822
					c-1.532-0.563-2.308-0.813-3.87-1.248c-0.275,0.984-0.41,1.476-0.685,2.46c1.404,0.391,2.098,0.615,3.476,1.115
					C80.283,47.901,80.227,48.063,80.109,48.388z"/>
				<path stroke-width="1.5" d="M83.536,45.225c0.652,0.151,1.549,0.473,2.371,0.858c1.275,0.598,1.987,1.218,2.329,1.913
					c0.274,0.559,0.255,1.182-0.051,1.726c-0.522,0.931-1.563,1.153-2.575,0.958c-0.007,0.013-0.01,0.02-0.017,0.032
					c0.547,0.523,0.647,1.241,0.435,2.078c-0.286,1.126-0.488,1.911-0.486,2.271c-0.402-0.229-0.602-0.342-1.009-0.561
					c-0.018-0.268,0.136-0.977,0.379-1.982c0.268-1.109,0.02-1.726-0.95-2.221c-0.409-0.192-0.613-0.286-1.025-0.467
					c-0.564,1.282-0.849,1.923-1.413,3.205c-0.405-0.179-0.608-0.265-1.017-0.433C81.719,49.651,82.324,48.176,83.536,45.225z
					 M83.255,49.108c0.455,0.201,0.682,0.302,1.133,0.515c1.178,0.556,2.197,0.414,2.628-0.403c0.486-0.923-0.137-1.784-1.369-2.371
					c-0.563-0.268-0.992-0.402-1.201-0.442C83.97,47.487,83.73,48.028,83.255,49.108z"/>
			</g>
		</defs>
		
		<!-- shadow dark/white outbound -->
            <use xlink:href="#out" fill="#000000" opacity="0.7" transform="translate(2,2)" />
            
            <!-- white right U -->
            <use xlink:href="#out" fill="#CCCCCC" />
                    
                    <!-- shadow dark/white outbound -->
            <use xlink:href="#zebra" stroke="#000000" opacity="0.7" transform="translate(2,2)" />
            
            <!-- white right U -->
            <use xlink:href="#zebra" stroke="#CCCCCC" />
	</g>
</svg>
